<svg width="100%" height="400px" viewBox="0 0 800 400" xmlns="http://www.w3.org/2000/svg">
  <!-- Laptop screen -->
  <rect x="100" y="30" width="600" height="250" rx="20" ry="20" fill="#d1d5db" stroke="#555" stroke-width="4"></rect>

  <!-- Laptop base -->
  <rect x="50" y="280" width="700" height="90" rx="15" ry="15" fill="#9ca3af" stroke="#555" stroke-width="3"></rect>

  <!-- Keyboard keys -->
  <g font-family="Arial" font-size="12" fill="#333">
    <!-- First Row -->
    <rect x="150" y="300" width="30" height="30" rx="5" ry="5" fill="#e5e7eb"></rect>
    <text x="160" y="320">Q</text>

    <rect x="190" y="300" width="30" height="30" rx="5" ry="5" fill="#e5e7eb"></rect>
    <text x="200" y="320">W</text>

    <rect x="230" y="300" width="30" height="30" rx="5" ry="5" fill="#e5e7eb"></rect>
    <text x="240" y="320">E</text>

    <rect x="270" y="300" width="30" height="30" rx="5" ry="5" fill="#e5e7eb"></rect>
    <text x="280" y="320">R</text>

    <rect x="310" y="300" width="30" height="30" rx="5" ry="5" fill="#e5e7eb"></rect>
    <text x="320" y="320">T</text>

    <rect x="350" y="300" width="30" height="30" rx="5" ry="5" fill="#e5e7eb"></rect>
    <text x="360" y="320">Y</text>

    <rect x="390" y="300" width="30" height="30" rx="5" ry="5" fill="#e5e7eb"></rect>
    <text x="400" y="320">U</text>

    <rect x="430" y="300" width="30" height="30" rx="5" ry="5" fill="#e5e7eb"></rect>
    <text x="440" y="320">I</text>

    <rect x="470" y="300" width="30" height="30" rx="5" ry="5" fill="#e5e7eb"></rect>
    <text x="480" y="320">O</text>

    <rect x="510" y="300" width="30" height="30" rx="5" ry="5" fill="#e5e7eb"></rect>
    <text x="520" y="320">P</text>

    <!-- Second Row -->
    <rect x="170" y="335" width="30" height="30" rx="5" ry="5" fill="#e5e7eb"></rect>
    <text x="180" y="355">A</text>

    <rect x="210" y="335" width="30" height="30" rx="5" ry="5" fill="#e5e7eb"></rect>
    <text x="220" y="355">S</text>

    <rect x="250" y="335" width="30" height="30" rx="5" ry="5" fill="#e5e7eb"></rect>
    <text x="260" y="355">D</text>

    <rect x="290" y="335" width="30" height="30" rx="5" ry="5" fill="#e5e7eb"></rect>
    <text x="300" y="355">F</text>

    <rect x="330" y="335" width="30" height="30" rx="5" ry="5" fill="#e5e7eb"></rect>
    <text x="340" y="355">G</text>

    <rect x="370" y="335" width="30" height="30" rx="5" ry="5" fill="#e5e7eb"></rect>
    <text x="380" y="355">H</text>

    <rect x="410" y="335" width="30" height="30" rx="5" ry="5" fill="#e5e7eb"></rect>
    <text x="420" y="355">J</text>

    <rect x="450" y="335" width="30" height="30" rx="5" ry="5" fill="#e5e7eb"></rect>
    <text x="460" y="355">K</text>

    <rect x="490" y="335" width="30" height="30" rx="5" ry="5" fill="#e5e7eb"></rect>
    <text x="500" y="355">L</text>

    <!-- Third Row -->
    <rect x="190" y="370" width="30" height="30" rx="5" ry="5" fill="#e5e7eb"></rect>
    <text x="200" y="390">Z</text>

    <rect x="230" y="370" width="30" height="30" rx="5" ry="5" fill="#e5e7eb"></rect>
    <text x="240" y="390">X</text>

    <rect x="270" y="370" width="30" height="30" rx="5" ry="5" fill="#e5e7eb"></rect>
    <text x="280" y="390">C</text>

    <rect x="310" y="370" width="30" height="30" rx="5" ry="5" fill="#e5e7eb"></rect>
    <text x="320" y="390">V</text>

    <rect x="350" y="370" width="30" height="30" rx="5" ry="5" fill="#e5e7eb"></rect>
    <text x="360" y="390">B</text>

    <rect x="390" y="370" width="30" height="30" rx="5" ry="5" fill="#e5e7eb"></rect>
    <text x="400" y="390">N</text>

    <rect x="430" y="370" width="30" height="30" rx="5" ry="5" fill="#e5e7eb"></rect>
    <text x="440" y="390">M</text>
  </g>

  <!-- Apple-style logo (simple circle) -->
  <circle cx="400" cy="155" r="20" fill="#555"></circle>
</svg>
